<svg width="323" height="280" viewBox="0 0 323 280" fill="none" xmlns="http://www.w3.org/2000/svg">
<path d="M119.711 207.317C97.6723 168.835 115.756 137.64 160.101 137.64H240.396L316.87 271.17C319.561 275.87 317.353 279.68 311.936 279.68H161.154L119.711 207.317Z" fill="url(#paint0_linear)"/>
<path d="M306.782 0.50815C312.275 0.527324 315.021 0.536911 316.585 1.47C317.96 2.29076 318.71 3.59538 318.728 5.19686C318.748 7.01751 317.375 9.39598 314.628 14.1529L161.272 279.773L87.1871 152.537C84.5841 148.067 83.2826 145.831 82.9427 143.221C82.6413 140.908 82.8968 138.384 83.6996 135.747C84.6052 132.772 86.4528 129.614 90.1481 123.298L151.752 18.0026C155.44 11.6983 157.284 8.54621 160.106 6.14508C162.587 4.03279 165.578 2.32083 168.652 1.25254C172.147 0.0381764 175.787 0.0508823 183.066 0.0762941L306.782 0.50815Z" fill="url(#paint1_linear)"/>
<defs>
<linearGradient id="paint0_linear" x1="282.173" y1="255.006" x2="204.666" y2="205.386" gradientUnits="userSpaceOnUse">
<stop stop-color="white"/>
<stop offset="1" stop-color="white" stop-opacity="0"/>
</linearGradient>
<linearGradient id="paint1_linear" x1="259.002" y1="53.9999" x2="93.0113" y2="74.9363" gradientUnits="userSpaceOnUse">
<stop stop-color="#640AF8"/>
<stop offset="1" stop-color="#F750E4"/>
</linearGradient>
</defs>
</svg>
